<mxfile host="app.diagrams.net" agent="Mozilla/5.0 (X11; Linux x86_64; rv:133.0) Gecko/20100101 Firefox/133.0" version="28.2.8">
  <diagram name="Page-1" id="VZLWJxQgsVBzH_rjuAjI">
    <mxGraphModel dx="1253" dy="676" grid="1" gridSize="10" guides="1" tooltips="1" connect="1" arrows="1" fold="1" page="1" pageScale="1" pageWidth="850" pageHeight="1100" math="0" shadow="0">
      <root>
        <mxCell id="0" />
        <mxCell id="1" parent="0" />
        <mxCell id="tuxfP5Swf-Po2t3ABIqW-1" value="&lt;div&gt;Player&lt;/div&gt;" style="shape=umlActor;verticalLabelPosition=bottom;verticalAlign=top;html=1;outlineConnect=0;" vertex="1" parent="1">
          <mxGeometry x="140" y="480" width="30" height="60" as="geometry" />
        </mxCell>
        <mxCell id="tuxfP5Swf-Po2t3ABIqW-2" value="Game" style="shape=umlFrame;whiteSpace=wrap;html=1;pointerEvents=0;" vertex="1" parent="1">
          <mxGeometry x="270" y="360" width="420" height="460" as="geometry" />
        </mxCell>
        <mxCell id="tuxfP5Swf-Po2t3ABIqW-3" value="start game" style="ellipse;whiteSpace=wrap;html=1;" vertex="1" parent="1">
          <mxGeometry x="330" y="410" width="140" height="70" as="geometry" />
        </mxCell>
        <mxCell id="tuxfP5Swf-Po2t3ABIqW-9" style="edgeStyle=orthogonalEdgeStyle;rounded=0;orthogonalLoop=1;jettySize=auto;html=1;exitX=1;exitY=0.5;exitDx=0;exitDy=0;entryX=0.5;entryY=0;entryDx=0;entryDy=0;" edge="1" parent="1" source="tuxfP5Swf-Po2t3ABIqW-4" target="tuxfP5Swf-Po2t3ABIqW-5">
          <mxGeometry relative="1" as="geometry" />
        </mxCell>
        <mxCell id="tuxfP5Swf-Po2t3ABIqW-4" value="&lt;div&gt;move snake&lt;br&gt;&lt;/div&gt;" style="ellipse;whiteSpace=wrap;html=1;" vertex="1" parent="1">
          <mxGeometry x="330" y="515" width="140" height="70" as="geometry" />
        </mxCell>
        <mxCell id="tuxfP5Swf-Po2t3ABIqW-7" value="" style="edgeStyle=orthogonalEdgeStyle;rounded=0;orthogonalLoop=1;jettySize=auto;html=1;" edge="1" parent="1" source="tuxfP5Swf-Po2t3ABIqW-5" target="tuxfP5Swf-Po2t3ABIqW-6">
          <mxGeometry relative="1" as="geometry" />
        </mxCell>
        <mxCell id="tuxfP5Swf-Po2t3ABIqW-5" value="update game state" style="ellipse;whiteSpace=wrap;html=1;" vertex="1" parent="1">
          <mxGeometry x="490" y="600" width="140" height="70" as="geometry" />
        </mxCell>
        <mxCell id="tuxfP5Swf-Po2t3ABIqW-6" value="check head" style="ellipse;whiteSpace=wrap;html=1;" vertex="1" parent="1">
          <mxGeometry x="490" y="710" width="140" height="70" as="geometry" />
        </mxCell>
        <mxCell id="tuxfP5Swf-Po2t3ABIqW-10" value="" style="endArrow=classic;html=1;rounded=0;entryX=0;entryY=0.5;entryDx=0;entryDy=0;" edge="1" parent="1" target="tuxfP5Swf-Po2t3ABIqW-3">
          <mxGeometry width="50" height="50" relative="1" as="geometry">
            <mxPoint x="180" y="520" as="sourcePoint" />
            <mxPoint x="230" y="470" as="targetPoint" />
          </mxGeometry>
        </mxCell>
        <mxCell id="tuxfP5Swf-Po2t3ABIqW-11" value="" style="endArrow=classic;html=1;rounded=0;entryX=0;entryY=0.5;entryDx=0;entryDy=0;" edge="1" parent="1" target="tuxfP5Swf-Po2t3ABIqW-4">
          <mxGeometry width="50" height="50" relative="1" as="geometry">
            <mxPoint x="180" y="530" as="sourcePoint" />
            <mxPoint x="280" y="510" as="targetPoint" />
          </mxGeometry>
        </mxCell>
      </root>
    </mxGraphModel>
  </diagram>
</mxfile>
